<?xml version="1.0"?>
<svg xmlns="http://www.w3.org/2000/svg" id="Capa_1" enable-background="new 0 0 511.819 511.819" height="512px" viewBox="0 0 511.819 511.819" width="512px"><g><g><path d="m199.351 278.782h56.875.001c12.733-.001 23.092-10.361 23.092-23.094v-39.817c0-12.734-10.359-23.094-23.094-23.094s-23.094 10.36-23.094 23.094v16.724h-33.78c-12.734 0-23.094 10.36-23.094 23.094s10.36 23.093 23.094 23.093zm56.874-71.005c4.463 0 8.094 3.631 8.094 8.094v39.817c0 4.463-3.631 8.094-8.094 8.094s-8.094-3.631-8.094-8.094v-39.817c0-4.463 3.631-8.094 8.094-8.094zm-56.874 39.818h33.78v8.094c0 2.847.521 5.573 1.467 8.094h-35.248c-4.463 0-8.094-3.631-8.094-8.094s3.632-8.094 8.095-8.094z" data-original="#000000" class="active-path" data-old_color="#000000" fill="#000000"/><path d="m121.266 41.82h-80.563c-4.143 0-7.5 3.358-7.5 7.5s3.357 7.5 7.5 7.5h80.563c4.143 0 7.5-3.358 7.5-7.5s-3.357-7.5-7.5-7.5z" data-original="#000000" class="active-path" data-old_color="#000000" fill="#000000"/><path d="m87.797 71.001h-47.094c-4.143 0-7.5 3.358-7.5 7.5s3.357 7.5 7.5 7.5h47.095c4.143 0 7.5-3.358 7.5-7.5s-3.358-7.5-7.501-7.5z" data-original="#000000" class="active-path" data-old_color="#000000" fill="#000000"/><path d="m509.895 57.698c-1.323-13.519-12.113-23.972-25.663-24.854-35.426-2.28-71.355-2.28-106.799 0-13.544.882-24.334 11.335-25.656 24.854-2.427 24.785-2.427 49.917 0 74.701.782 7.996 4.892 14.899 10.909 19.404l-15.282 11.449c-23.471-23.154-55.682-37.47-91.178-37.47-34.528 0-65.949 13.544-89.24 35.593l-39.988-34.848c2.462-.136 4.928-.257 7.386-.415 13.542-.871 24.333-11.32 25.658-24.846 2.43-24.787 2.43-49.923 0-74.71-1.325-13.526-12.116-23.975-25.658-24.846-35.434-2.28-71.366-2.28-106.8 0-13.542.871-24.333 11.32-25.658 24.846-2.43 24.787-2.43 49.923 0 74.709 1.324 13.526 12.115 23.975 25.658 24.846 17.717 1.14 35.559 1.71 53.4 1.71 8.086 0 16.171-.133 24.246-.367l51.466 44.85c-18.948 22.58-30.377 51.67-30.377 83.384 0 32.965 12.349 63.096 32.656 86.026l-31.032 28.65c-32.508-1.296-65.249-.903-97.622 1.18-14.801.948-26.591 12.368-28.034 27.152-2.735 27.879-2.735 56.156-.001 84.042 1.444 14.773 13.231 26.193 28.033 27.155 19.958 1.285 40.053 1.927 60.149 1.927s40.193-.643 60.148-1.927c14.79-.961 26.581-12.379 28.039-27.16 1.344-13.851 2.035-27.824 2.055-41.534.006-4.142-3.347-7.505-7.489-7.511-.004 0-.007 0-.011 0-4.137 0-7.494 3.351-7.5 7.489-.019 13.235-.687 26.729-1.983 40.095-.732 7.428-6.655 13.169-14.078 13.652-39.269 2.527-79.092 2.527-118.362 0-7.428-.483-13.346-6.221-14.072-13.647-2.64-26.917-2.64-54.208.001-81.119.726-7.43 6.641-13.168 14.066-13.645 39.277-2.527 79.102-2.528 118.369 0 7.424.476 13.344 6.216 14.075 13.637.382 3.954.705 7.854.962 11.591.283 4.133 3.862 7.258 7.996 6.969 4.132-.284 7.252-3.863 6.969-7.996-.266-3.876-.602-7.917-.998-12.022-1.457-14.784-13.251-26.201-28.043-27.149-.573-.037-1.148-.068-1.721-.104l20.662-19.076c23.009 20.649 53.398 33.231 86.674 33.231 30.482 0 58.542-10.558 80.726-28.203l26.012 26.75c-4.392 3.589-7.357 8.859-7.949 14.902-1.766 18.008-1.766 36.27 0 54.278 1.056 10.778 9.655 19.105 20.449 19.799 12.819.825 25.729 1.237 38.639 1.237 12.909 0 25.819-.412 38.639-1.237 10.794-.694 19.394-9.021 20.449-19.799 1.766-18.009 1.766-36.271 0-54.278-1.056-10.779-9.656-19.106-20.449-19.799-24.484-1.576-49.294-1.628-73.806-.195l-30.786-31.658c23.458-23.514 37.983-55.944 37.983-91.704 0-30.728-10.731-58.991-28.632-81.258l22.719-17.021c16.745 1.023 33.774 1.559 50.681 1.559 4.143 0 7.5-3.358 7.5-7.5s-3.357-7.5-7.5-7.5c-17.521 0-35.183-.567-52.493-1.685-6.177-.402-11.099-5.173-11.703-11.347-2.331-23.814-2.331-47.963.001-71.778.604-6.172 5.525-10.944 11.696-11.346 34.798-2.239 70.079-2.239 104.861 0 6.177.402 11.099 5.174 11.703 11.347 2.332 23.814 2.332 47.964-.001 71.778-.604 6.173-5.525 10.944-11.695 11.346-7.759.498-15.401.881-22.714 1.139-4.14.146-7.377 3.62-7.23 7.76.146 4.14 3.659 7.376 7.76 7.23 7.456-.263 15.243-.653 23.152-1.161 13.543-.881 24.334-11.334 25.656-24.854 2.427-24.781 2.427-49.915 0-74.698zm-481.348 53.444c-6.171-.397-11.089-5.166-11.693-11.34-2.333-23.816-2.333-47.968 0-71.785.604-6.173 5.522-10.942 11.693-11.339 17.398-1.119 34.917-1.678 52.437-1.678 17.521 0 35.04.56 52.438 1.679 6.17.397 11.088 5.166 11.693 11.34 2.333 23.816 2.333 47.968 0 71.784-.605 6.174-5.523 10.943-11.693 11.34-34.794 2.238-70.079 2.238-104.875-.001zm132.163 208.353 6.677-3.855c3.587-2.071 4.816-6.658 2.745-10.245-2.071-3.588-6.66-4.815-10.245-2.745l-6.696 3.866c-6.545-13.214-10.62-27.857-11.621-43.326h18.139c4.143 0 7.5-3.358 7.5-7.5s-3.357-7.5-7.5-7.5h-18.139c1.002-15.469 5.076-30.113 11.622-43.327l6.696 3.866c1.181.682 2.471 1.006 3.743 1.006 2.592 0 5.113-1.345 6.502-3.751 2.071-3.587.842-8.174-2.745-10.245l-6.677-3.855c8.395-12.525 19.184-23.315 31.709-31.71l3.855 6.678c1.39 2.406 3.91 3.751 6.502 3.751 1.272 0 2.562-.325 3.743-1.006 3.587-2.071 4.816-6.658 2.745-10.245l-3.866-6.696c13.214-6.545 27.858-10.62 43.327-11.622v18.14c0 4.142 3.357 7.5 7.5 7.5s7.5-3.358 7.5-7.5v-18.14c15.469 1.002 30.112 5.076 43.326 11.621l-3.866 6.696c-2.071 3.587-.842 8.174 2.745 10.245 1.181.682 2.471 1.006 3.743 1.006 2.592 0 5.112-1.345 6.502-3.751l3.856-6.678c12.525 8.395 23.315 19.185 31.71 31.71l-6.678 3.855c-3.587 2.071-4.816 6.658-2.745 10.245 1.389 2.406 3.91 3.751 6.502 3.751 1.272 0 2.562-.324 3.743-1.006l6.696-3.866c6.545 13.214 10.62 27.858 11.622 43.327h-18.14c-4.143 0-7.5 3.358-7.5 7.5s3.357 7.5 7.5 7.5h18.14c-1.002 15.469-5.076 30.112-11.622 43.327l-6.697-3.866c-3.589-2.072-8.175-.842-10.245 2.745-2.071 3.587-.842 8.174 2.745 10.245l6.678 3.855c-8.395 12.526-19.184 23.315-31.71 31.71l-3.856-6.678c-2.071-3.587-6.66-4.815-10.245-2.745-3.587 2.071-4.816 6.658-2.745 10.245l3.866 6.696c-13.214 6.545-27.857 10.62-43.326 11.621v-18.14c0-4.142-3.357-7.5-7.5-7.5s-7.5 3.358-7.5 7.5v18.14c-15.469-1.002-30.113-5.077-43.327-11.622l3.866-6.696c2.071-3.587.842-8.174-2.745-10.245-3.586-2.072-8.174-.843-10.245 2.745l-3.856 6.678c-12.524-8.395-23.314-19.184-31.708-31.709zm253.393 73.513c12.588 0 25.176.402 37.676 1.206 3.422.22 6.148 2.866 6.484 6.293 1.67 17.038 1.67 34.315 0 51.354-.336 3.426-3.062 6.072-6.484 6.292-25 1.607-50.352 1.607-75.352 0-3.422-.22-6.148-2.867-6.484-6.293-1.67-17.038-1.67-34.315 0-51.354.336-3.426 3.062-6.072 6.484-6.292 12.5-.804 25.087-1.206 37.676-1.206z" data-original="#000000" class="active-path" data-old_color="#000000" fill="#000000"/><path d="m478.619 80.457c0-4.142-3.357-7.5-7.5-7.5h-80.563c-4.143 0-7.5 3.358-7.5 7.5s3.357 7.5 7.5 7.5h80.563c4.142 0 7.5-3.358 7.5-7.5z" data-original="#000000" class="active-path" data-old_color="#000000" fill="#000000"/><path d="m390.555 102.138c-4.143 0-7.5 3.358-7.5 7.5s3.357 7.5 7.5 7.5h47.096c4.143 0 7.5-3.358 7.5-7.5s-3.357-7.5-7.5-7.5z" data-original="#000000" class="active-path" data-old_color="#000000" fill="#000000"/><path d="m390.555 419.093h47.096c4.143 0 7.5-3.358 7.5-7.5s-3.357-7.5-7.5-7.5h-47.096c-4.143 0-7.5 3.358-7.5 7.5s3.358 7.5 7.5 7.5z" data-original="#000000" class="active-path" data-old_color="#000000" fill="#000000"/><path d="m390.555 448.274h27.53c4.143 0 7.5-3.358 7.5-7.5s-3.357-7.5-7.5-7.5h-27.53c-4.143 0-7.5 3.358-7.5 7.5s3.358 7.5 7.5 7.5z" data-original="#000000" class="active-path" data-old_color="#000000" fill="#000000"/><path d="m138.251 440.715c0-4.142-3.357-7.5-7.5-7.5h-80.565c-4.143 0-7.5 3.358-7.5 7.5s3.357 7.5 7.5 7.5h80.564c4.143 0 7.501-3.358 7.501-7.5z" data-original="#000000" class="active-path" data-old_color="#000000" fill="#000000"/><path d="m130.751 403.031h-80.565c-4.143 0-7.5 3.358-7.5 7.5s3.357 7.5 7.5 7.5h80.564c4.143 0 7.5-3.358 7.5-7.5s-3.357-7.5-7.499-7.5z" data-original="#000000" class="active-path" data-old_color="#000000" fill="#000000"/><path d="m50.186 463.399c-4.143 0-7.5 3.358-7.5 7.5s3.357 7.5 7.5 7.5h47.096c4.143 0 7.5-3.358 7.5-7.5s-3.357-7.5-7.5-7.5z" data-original="#000000" class="active-path" data-old_color="#000000" fill="#000000"/></g></g> </svg>
